<svg
   xmlns:dc="http://purl.org/dc/elements/1.1/"
   xmlns:cc="http://creativecommons.org/ns#"
   xmlns:rdf="http://www.w3.org/1999/02/22-rdf-syntax-ns#"
   xmlns:svg="http://www.w3.org/2000/svg"
   xmlns="http://www.w3.org/2000/svg"
   xmlns:xlink="http://www.w3.org/1999/xlink"
   id="svg70"
   version="1.1"
   viewBox="0 1  380 280">
  <metadata
     id="metadata76">
    <rdf:RDF>
      <cc:Work
         rdf:about="">
        <dc:format>image/svg+xml</dc:format>
        <dc:type
           rdf:resource="http://purl.org/dc/dcmitype/StillImage" />
      </cc:Work>
    </rdf:RDF>
  </metadata>
  <defs
     id="defs74" />
  <svg
     id="svg63"
     version="1.1"
     height="60.917431"
     width="64"
     y="81.59597"
     x="158">
    <svg
       height="100%"
       width="100%"
       id="svg61"
       version="1.1"
       viewBox="19.5 10.5 261.6 249">
      <mask
         id="id__54094889">
        <svg
           id="svg12"
           version="1.1"
           height="300"
           width="273.54001"
           y="0.0"
           x="13.23">
          <svg
             height="100%"
             width="100%"
             id="svg10"
             version="1.1"
             viewBox="0 0 455.9 500"
             enable-background="new 0 0 455.9 500">
            <rect
               style="fill:#000000"
               id="rect2"
               height="500"
               width="455.89999"
               y="0"
               x="0" />
            <g
               style="fill:#ffffff"
               id="g8">
              <path
                 style="fill:#ffffff"
                 id="path4"
                 d="M 431,297.2 C 361.3,366.8 294.2,433.9 228,500 161.2,433.3 93.9,366.2 23.4,295.8 35.5,284.9 48,273 61.4,262.1 c 8.3,-6.7 9,-13.5 6.2,-23.3 C 46.8,166.8 26.5,94.7 6,22.6 4.3,16.7 2.8,10.7 0,0 c 67.8,43.2 132,84.1 198,126.1 8.5,-10.6 16.9,-21.2 28.3,-35.4 11.7,15.5 20.2,26.8 28.7,38.1 68.3,-43.6 132.7,-84.7 200.9,-128.1 -1.9,8.6 -2.7,13.8 -4.1,18.8 -20.7,73.1 -41.3,146.2 -62.5,219.2 -3.2,10.9 -2.4,18.5 6.6,26 11.9,10.1 23,21.3 35.1,32.5 z M 229.1,138.1 c -38.4,37.9 -77.3,76.3 -116.5,115 22.9,9.8 46,20.9 70.1,29.5 14,5 19.1,12.9 20.3,27.2 2.1,27.5 6.2,54.8 9.4,82.2 h 28.2 c 4.3,-28.4 9,-56.2 12.7,-84.2 1.7,-12.6 6.5,-20.1 19.3,-24.8 24.3,-8.9 47.8,-20.1 71.8,-30.3 -40,-39.5 -78.5,-77.9 -115.3,-114.6 z M 396,297.2 c -9.3,-7.5 -16.7,-14.3 -24.8,-19.8 -3.2,-2.2 -8.9,-3.4 -12.2,-2.1 -23.8,9.6 -47.5,19.5 -70.7,30.5 -4.5,2.1 -8.8,8.6 -9.8,13.8 -4.4,23.2 -7.5,46.5 -11.2,69.8 -0.5,3.4 -0.7,7.6 -2.8,9.9 -11.8,13.1 -24.2,25.8 -38,40.2 -13.3,-13.9 -25.7,-26.6 -37.7,-39.6 -2.1,-2.3 -2.9,-6.2 -3.3,-9.5 -2.9,-23.9 -5,-48 -8.6,-71.8 -0.7,-4.9 -5.6,-11.1 -10.2,-13.3 -22.8,-10.7 -45.9,-20.5 -69.3,-29.8 -3.8,-1.5 -10.1,-0.6 -13.6,1.7 -8.7,5.7 -16.5,12.9 -25.6,20.2 51.3,51.1 99,98.9 147.1,146.4 7.4,7.4 36.8,6.7 44.2,-0.6 47.6,-47.1 95,-94.6 146.5,-146 z M 411.8,64.6 c -1,-0.9 -2,-1.9 -3,-2.8 -43.4,27.7 -86.8,55.4 -128.6,82.1 28.7,28.7 56.5,56.6 85.1,85.2 15.4,-54.5 31,-109.5 46.5,-164.5 z M 91.5,228.4 c 28.7,-28.7 56.3,-56.2 84.9,-84.7 C 133.7,116.4 90.6,88.9 43.6,59 60.5,118.5 76,173.5 91.5,228.4 Z" />
              <path
                 style="fill:#ffffff"
                 id="path6"
                 d="m 396,297.2 c -51.5,51.4 -98.9,98.9 -146.5,146.1 -7.4,7.4 -36.8,8 -44.2,0.6 -48,-47.5 -95.8,-95.3 -147.1,-146.4 9.1,-7.4 16.9,-14.5 25.6,-20.2 3.5,-2.3 9.8,-3.2 13.6,-1.7 23.3,9.3 46.5,19.1 69.3,29.8 4.6,2.2 9.5,8.3 10.2,13.3 3.6,23.8 5.7,47.8 8.6,71.8 0.4,3.3 1.2,7.2 3.3,9.5 12,13.1 24.4,25.8 37.7,39.6 13.7,-14.4 26.1,-27.1 38,-40.2 2.1,-2.3 2.3,-6.5 2.8,-9.9 3.7,-23.3 6.8,-46.7 11.2,-69.8 1,-5.1 5.3,-11.6 9.8,-13.8 23.2,-10.9 46.9,-20.9 70.7,-30.5 3.3,-1.3 9.1,-0.1 12.2,2.1 8.2,5.5 15.5,12.2 24.8,19.7 z M 411.8,64.6 c -15.6,55 -31.1,110 -46.6,164.6 -28.6,-28.6 -56.4,-56.5 -85.1,-85.2 28.3,-18.1 76.4,-48.8 128.6,-82.1 1.1,0.9 2.1,1.8 3.1,2.7 z M 91.5,228.4 C 76,173.5 60.5,118.5 43.6,59 c 47,30 90.1,57.4 132.8,84.7 -28.5,28.5 -56.1,56 -84.9,84.7 z" />
            </g>
          </svg>
        </svg>
      </mask>
      <g
         id="g59"
         mask="url(#id__54094889)">
        <svg
           id="svg57"
           version="1.1"
           height="286.84125"
           width="300"
           y="6.5793719"
           x="0.0">
          <svg
             height="100%"
             width="100%"
             id="svg55"
             version="1.1"
             viewBox="0 0 278.94 266.705">
            <g
               style="fill:#e8544f"
               id="g53">
              <linearGradient
                 id="id__73662766">
                <stop
                   id="stop15"
                   stop-color="#E8544F"
                   offset="1" />
                <stop
                   id="stop17"
                   stop-color="#E8544F"
                   offset="1" />
                <stop
                   id="stop19"
                   stop-color="#E8544F"
                   offset="1" />
                <stop
                   id="stop21"
                   stop-color="#E8544F"
                   offset="1" />
                <stop
                   id="stop23"
                   stop-color="#E8544F"
                   offset="1" />
                <stop
                   id="stop25"
                   stop-color="#E8544F"
                   offset="1" />
              </linearGradient>
              <linearGradient
                 y2="-399.966"
                 y1="-399.966"
                 xlink:href="#id__73662766"
                 x2="2301.4121"
                 x1="2517.4031"
                 gradientUnits="userSpaceOnUse"
                 gradientTransform="matrix(-0.70710678,0.70710678,0.70710678,0.70710678,2920.1659,-1172.9359)"
                 id="id__76278933" />
              <linearGradient
                 id="id__33378088">
                <stop
                   id="stop29"
                   stop-color="#E8544F"
                   offset="1" />
                <stop
                   id="stop31"
                   stop-color="#E8544F"
                   offset="1" />
              </linearGradient>
              <linearGradient
                 y2="630.612"
                 y1="630.612"
                 xlink:href="#id__33378088"
                 x2="3581.613"
                 x1="3428.8989"
                 gradientUnits="userSpaceOnUse"
                 gradientTransform="rotate(-134.999,2144.877,1014.85)"
                 id="id__34381526" />
              <linearGradient
                 y2="-298.871"
                 y1="-298.871"
                 xlink:href="#id__73662766"
                 x2="2200.3169"
                 x1="2416.3101"
                 gradientUnits="userSpaceOnUse"
                 gradientTransform="rotate(45.001,899.911,-1832.016)"
                 id="id__11268766" />
              <linearGradient
                 y2="731.70599"
                 y1="731.70599"
                 xlink:href="#id__33378088"
                 x2="3480.519"
                 x1="3327.8049"
                 gradientUnits="userSpaceOnUse"
                 gradientTransform="matrix(0.70710678,-0.70710678,-0.70710678,-0.70710678,-1055.6254,3249.1249)"
                 id="id__78490787" />
              <path
                 style="fill:none"
                 id="path37"
                 pointer-events="none"
                 d="M 0,0 H 278.94 V 266.705 H 0 Z" />
              <g
                 id="g51"
                 transform="translate(-732.851,-142.681)">
                <g
                   id="g43">
                  <path
                     style="fill:url(#id__76278933)"
                     id="path39"
                     d="m 983.147,252.125 c 29.65,-29.65 29.653,-77.727 0,-107.382 l -99.036,99.039 c -29.65,29.65 -29.656,77.727 0,107.38 z" />
                  <path
                     style="fill:url(#id__34381526)"
                     id="path41"
                     d="m 938.406,298.081 c 29.65,29.65 29.65,77.727 -0.003,107.376 l -54.292,-54.295 c -29.653,-29.653 -29.653,-77.729 0,-107.38 z" />
                </g>
                <g
                   id="g49">
                  <path
                     style="fill:url(#id__11268766)"
                     id="path45"
                     d="m 762.188,252.125 c -29.65,-29.65 -29.653,-77.727 0,-107.382 l 99.036,99.039 c 29.65,29.65 29.656,77.727 0,107.38 z" />
                  <path
                     style="fill:url(#id__78490787)"
                     id="path47"
                     d="m 806.929,298.081 c -29.65,29.65 -29.65,77.727 0.003,107.376 l 54.292,-54.295 c 29.653,-29.653 29.653,-77.729 0,-107.38 z" />
                </g>
              </g>
            </g>
          </svg>
        </svg>
      </g>
    </svg>
  </svg>
  <g
     transform="translate(190,165)"
     id="id__2808243">
    <g
       id="text65"
       style="font-size:45px;font-family:'IdeaFonts JianSong';fill:#e8544f"
       aria-label="陌">
      <path
         id="path78"
         style="font-size:45px;font-family:'IdeaFonts JianSong';fill:#e8544f"
         d="M -2.87375,-9.5146885 V 20.365312 h -6.705 v -1.62 h -9.405 v 1.62 h -6.66 V -9.5146885 h 6.66 v 1.26 h 1.665 q 0.09,-1.17 0.135,-2.3399995 0.09,-1.17 0.09,-2.34 h -8.955 v -4.815 h 23.895 v 4.815 h -7.515 q -1.17,2.565 -2.565,4.6799995 h 2.655 v -1.26 z m -31.635,23.1750005 q -0.09,-1.305 -0.495,-2.835 -0.36,-1.5750005 -0.99,-2.8800005 V 20.230312 h -5.94 v -39.33 h 5.94 v 1.935 h 2.655 l 0.225,-2.115 6.795,2.205 q -0.495,1.44 -1.215,3.15 -0.675,1.71 -1.44,3.42 -0.765,1.7099995 -1.575,3.2849995 -0.81,1.53 -1.485,2.655 1.395,0.945 2.385,2.25 0.99,1.305 1.62,2.88000005 0.63,1.52999995 0.855,3.28499995 0.27,1.755 0.135,3.555 -0.225,2.9250005 -1.71,4.5450005 -1.44,1.62 -3.825,1.71 z m 15.525,0.18 h 9.405 V 7.4953115 h -9.405 z m 0,-11.2050005 h 9.405 v -5.94 h -9.405 z m -16.74,-6.435 q 0.405,-1.755 0.855,-4.095 0.45,-2.3849995 0.855,-4.7699995 h -1.98 V 7.1353115 h 1.08 q 1.035,0 1.53,-0.54 0.495,-0.585 0.495,-1.485 -0.045,-1.17 -0.225,-2.43 -0.18,-1.26 -0.54,-2.42999995 -0.36,-1.215 -0.9,-2.25000005 -0.495,-1.08 -1.17,-1.8 z" />
    </g>
    <g
       id="text67"
       style="font-size:45px;font-family:'IdeaFonts JianSong';fill:#e8544f"
       aria-label="路">
      <path
         id="path81"
         style="font-size:45px;font-family:'IdeaFonts JianSong';fill:#e8544f"
         d="m 17.09375,-19.234688 v 13.6799995 q 1.89,-3.555 3.465,-7.6049995 1.575,-4.05 2.43,-7.785 l 7.11,2.295 q -0.405,0.765 -0.855,1.575 -0.405,0.81 -0.9,1.575 h 4.23 l 0.585,-1.17 6.21,3.915 q -1.17,2.115 -2.835,4.2749995 -1.665,2.16 -3.78,4.23 1.89,0.765 4.14,1.305 2.295,0.54 5.13,0.855 l -3.015,6.48 q -0.54,-0.09 -0.855,-0.18 V 20.770312 h -6.795 v -0.855 h -5.04 v 0.855 h -6.795 V 4.4803115 l -1.8,0.585 -0.855,-1.44 v 1.215 h -2.835 v 5.4900005 q 1.08,-0.3600005 2.115,-0.6750005 1.08,-0.36 2.115,-0.72 l 1.035,2.7450005 q -1.35,1.35 -3.33,2.79 -1.935,1.395 -4.14,2.655 -2.205,1.305 -4.5,2.34 -2.295,1.08 -4.365,1.755 l -2.25,-7.56 q 0.36,-0.09 0.765,-0.135 0.405,-0.09 0.81,-0.18 V -1.6396885 h 4.86 V 12.220312 l 1.26,-0.315 V -3.2596885 h 5.625 v 3.78000005 h 2.835 V 2.7703115 q 1.89,-1.305 3.78,-2.96999995 1.935,-1.71000005 3.735,-3.69000005 -0.9,-1.395 -1.665,-3.24 -1.215,1.485 -2.475,2.79 -1.215,1.26 -2.52,2.25 l -1.89,-1.215 0.18,-0.36 h -4.995 v -1.17 h -2.385 v 1.17 h -6.03 V -19.234688 h 6.03 v 1.215 h 2.385 v -1.215 z m 9.225,35.19 h 5.04 V 7.9003115 h -5.04 z m 7.29,-13.0050005 q -3.42,-1.215 -5.76,-3.05999995 -2.43,1.79999995 -4.95,3.05999995 h 3.42 v 0.99 h 5.04 v -0.99 z m -8.73,-12.9599995 q 0.45,0.6299995 1.035,1.3499995 0.585,0.675 1.395,1.35 0.765,-0.99 1.485,-1.98 0.765,-0.9899995 1.395,-2.0249995 h -4.41 z m -16.245,0.4949995 h 2.385 v -3.8249995 h -2.385 z" />
    </g>
  </g>
</svg>
